<mxfile host="65bd71144e">
    <diagram id="AKpcfMyupfmr6bvoD8BU" name="Page-1">
        <mxGraphModel dx="1054" dy="617" grid="1" gridSize="10" guides="1" tooltips="1" connect="1" arrows="1" fold="1" page="1" pageScale="1" pageWidth="10000000" pageHeight="10000000" math="0" shadow="0">
            <root>
                <mxCell id="0"/>
                <mxCell id="1" parent="0"/>
                <mxCell id="8" style="edgeStyle=none;html=1;exitX=1;exitY=0.5;exitDx=0;exitDy=0;entryX=0;entryY=0.5;entryDx=0;entryDy=0;" edge="1" parent="1" source="2" target="3">
                    <mxGeometry relative="1" as="geometry">
                        <Array as="points"/>
                    </mxGeometry>
                </mxCell>
                <mxCell id="2" value="&lt;b&gt;&lt;font style=&quot;font-size: 19px&quot;&gt;BeanFactoryPostProcessor&lt;/font&gt;&lt;/b&gt;" style="rounded=0;whiteSpace=wrap;html=1;" vertex="1" parent="1">
                    <mxGeometry x="410" y="310" width="340" height="50" as="geometry"/>
                </mxCell>
                <mxCell id="3" value="&lt;font style=&quot;font-size: 19px&quot;&gt;BeanDefinitionRegistryPOstProcessor&lt;/font&gt;" style="rounded=0;whiteSpace=wrap;html=1;" vertex="1" parent="1">
                    <mxGeometry x="1040" y="310" width="390" height="50" as="geometry"/>
                </mxCell>
                <mxCell id="4" value="" style="shape=singleArrow;direction=south;whiteSpace=wrap;html=1;" vertex="1" parent="1">
                    <mxGeometry x="330" y="380" width="60" height="360" as="geometry"/>
                </mxCell>
                <mxCell id="11" style="edgeStyle=none;html=1;exitX=1;exitY=0.5;exitDx=0;exitDy=0;" edge="1" parent="1" source="5" target="6">
                    <mxGeometry relative="1" as="geometry"/>
                </mxCell>
                <mxCell id="5" value="用户手动加入的BeanFactoryPostProcessor" style="rounded=1;whiteSpace=wrap;html=1;fontSize=15;fontStyle=1" vertex="1" parent="1">
                    <mxGeometry x="422.5" y="400" width="315" height="80" as="geometry"/>
                </mxCell>
                <mxCell id="6" value="以方法参数的形式注入进来的" style="rounded=1;whiteSpace=wrap;html=1;fontSize=15;fontStyle=1" vertex="1" parent="1">
                    <mxGeometry x="800" y="410" width="120" height="60" as="geometry"/>
                </mxCell>
                <mxCell id="7" value="整个工厂中通过类型匹配找到的" style="rounded=1;whiteSpace=wrap;html=1;fontSize=15;fontStyle=1" vertex="1" parent="1">
                    <mxGeometry x="800" y="520" width="120" height="60" as="geometry"/>
                </mxCell>
                <mxCell id="10" style="edgeStyle=none;html=1;exitX=1;exitY=0.5;exitDx=0;exitDy=0;" edge="1" parent="1" source="9" target="7">
                    <mxGeometry relative="1" as="geometry"/>
                </mxCell>
                <mxCell id="9" value="实现了BeanDefinitionRegistryPostProcessor接口的类" style="rounded=1;whiteSpace=wrap;html=1;fontSize=15;fontStyle=1" vertex="1" parent="1">
                    <mxGeometry x="422.5" y="510" width="315" height="80" as="geometry"/>
                </mxCell>
                <mxCell id="12" value="通过类型匹配找到的" style="rounded=1;whiteSpace=wrap;html=1;fontSize=15;fontStyle=1" vertex="1" parent="1">
                    <mxGeometry x="800" y="630" width="120" height="60" as="geometry"/>
                </mxCell>
                <mxCell id="13" style="edgeStyle=none;html=1;exitX=1;exitY=0.5;exitDx=0;exitDy=0;" edge="1" parent="1" source="14" target="12">
                    <mxGeometry relative="1" as="geometry"/>
                </mxCell>
                <mxCell id="14" value="实现了BeanFactoryPostProcessor接口的类" style="rounded=1;whiteSpace=wrap;html=1;fontSize=15;fontStyle=1" vertex="1" parent="1">
                    <mxGeometry x="422.5" y="620" width="315" height="80" as="geometry"/>
                </mxCell>
                <mxCell id="15" value="如果自定义实现了BeanFacotryPostProcessor接口，那么想让spring识别到的话，有两种方式&lt;br&gt;1、定义在spring配置文件中，让spring自动识别&lt;br&gt;2、在自己实现的启动类中，比如ClassPathXMLApplicationContext中，重写customizeBeanFactory方法，调用父类的，addBeanFactoryPostProcessor方法，把自定义的BeanFactoryPostProcessor" style="shape=note;size=20;whiteSpace=wrap;html=1;fontSize=15;" vertex="1" parent="1">
                    <mxGeometry x="990" y="410" width="440" height="280" as="geometry"/>
                </mxCell>
                <mxCell id="17" value="他是BeanfactoryPostProcessor的子类，他的关注点在于，操作BeanDefinition，BeanFactoryPostProcessor更加偏向于整个工厂的增强" style="whiteSpace=wrap;html=1;rounded=1;arcSize=50;align=center;verticalAlign=middle;strokeWidth=1;autosize=1;spacing=4;treeFolding=1;treeMoving=1;newEdgeStyle={&quot;edgeStyle&quot;:&quot;entityRelationEdgeStyle&quot;,&quot;startArrow&quot;:&quot;none&quot;,&quot;endArrow&quot;:&quot;none&quot;,&quot;segment&quot;:10,&quot;curved&quot;:1};fontSize=15;" vertex="1" parent="1">
                    <mxGeometry x="1510" y="200" width="330" height="90" as="geometry"/>
                </mxCell>
                <mxCell id="18" value="" style="edgeStyle=entityRelationEdgeStyle;startArrow=none;endArrow=none;segment=10;curved=1;fontSize=15;exitX=0.5;exitY=0;exitDx=0;exitDy=0;" edge="1" target="17" parent="1" source="3">
                    <mxGeometry relative="1" as="geometry">
                        <mxPoint x="1430" y="300" as="sourcePoint"/>
                    </mxGeometry>
                </mxCell>
            </root>
        </mxGraphModel>
    </diagram>
</mxfile>